<svg xmlns="http://www.w3.org/2000/svg" width="56.521" height="70.7" viewBox="0 0 56.521 70.7">
  <g id="Page-1" transform="translate(-0.686 -0.65)">
    <g id="online-food-others" transform="translate(-475 -601)">
      <g id="Group-3" transform="translate(476 602)">
        <g id="withdraw">
          <path id="Path" d="M38.536,32.667l7,7" fill="#fff"/>
          <path id="Shape" d="M55.5,37.855,49.139,18.786a6.989,6.989,0,0,0-5.936-4.75V7h7a1.167,1.167,0,0,0,1.167-1.167V0H49.036V4.667H2.369V0H.036V5.833A1.167,1.167,0,0,0,1.2,7h7V46.667a1.167,1.167,0,0,0,1.167,1.167H22.58L28.646,63H25.7a1.167,1.167,0,0,0-1.167,1.167V70h2.333V65.333h24.5V70H53.7V64.167A1.167,1.167,0,0,0,52.536,63h-.924l4.118-21.621A7.016,7.016,0,0,0,55.5,37.855ZM34.961,7A9.331,9.331,0,0,1,16.445,7ZM14.095,7A11.667,11.667,0,0,0,37.311,7h3.558V33.35l-2.392-2.392a6.117,6.117,0,0,0-8.65,8.65l1.8,1.8a11.639,11.639,0,0,0-1.2,4.1H20.978A11.687,11.687,0,0,0,10.536,35.058V7ZM35.72,45.5H32.777a9.314,9.314,0,0,1,.607-2.336ZM10.536,37.409A9.349,9.349,0,0,1,18.627,45.5H10.536Zm42.9,3.533L49.237,63H31.159L25.093,47.833H36.085a12.677,12.677,0,0,0-1.5,10.853l2.224-.705a10.356,10.356,0,0,1,2.555-10.489,1.167,1.167,0,0,0,0-1.65l-7.883-7.884a3.783,3.783,0,0,1,5.35-5.35l4.384,4.384,3.5,3.5,1.65-1.65L43.2,35.683v-19.3a4.66,4.66,0,0,1,3.723,3.138l6.356,19.069a4.679,4.679,0,0,1,.157,2.349Z" fill="#fff" stroke="#fff" stroke-width="0.7"/>
        </g>
      </g>
    </g>
  </g>
</svg>
