<svg xmlns="http://www.w3.org/2000/svg" xmlns:xlink="http://www.w3.org/1999/xlink" width="79.689" height="88" viewBox="0 0 79.689 88">
  <defs>
    <filter id="Combined_Shape" x="0" y="0" width="79.689" height="88" filterUnits="userSpaceOnUse">
      <feOffset dy="6" input="SourceAlpha"/>
      <feGaussianBlur stdDeviation="3" result="blur"/>
      <feFlood flood-opacity="0.369"/>
      <feComposite operator="in" in2="blur"/>
      <feComposite in="SourceGraphic"/>
    </filter>
  </defs>
  <g transform="matrix(1, 0, 0, 1, 0, 0)" filter="url(#Combined_Shape)">
    <g id="Combined_Shape-2" data-name="Combined Shape" transform="translate(9 3)" fill="#fff" stroke-miterlimit="10">
      <path d="M 30.92040061950684 67.50019836425781 C 30.64237785339355 67.50019836425781 30.41620063781738 67.27402496337891 30.41620063781738 66.99600219726563 L 30.41620063781738 63.54089736938477 C 30.41620063781738 63.26287841796875 30.64237785339355 63.03669738769531 30.92040061950684 63.03669738769531 C 31.19842338562012 63.03669738769531 31.42460060119629 63.26287841796875 31.42460060119629 63.54089736938477 L 31.42460060119629 66.99600219726563 C 31.42460060119629 67.27402496337891 31.19842338562012 67.50019836425781 30.92040061950684 67.50019836425781 Z M 30.92040061950684 53.52949905395508 C 20.70275688171387 53.52949905395508 12.39010047912598 45.21724319458008 12.39010047912598 35.00009918212891 C 12.39010047912598 24.78245544433594 20.70275688171387 16.46979904174805 30.92040061950684 16.46979904174805 C 41.13754653930664 16.46979904174805 49.44980239868164 24.78245544433594 49.44980239868164 35.00009918212891 C 49.44980239868164 45.21724319458008 41.13754653930664 53.52949905395508 30.92040061950684 53.52949905395508 Z M 30.92040061950684 16.49989891052246 C 20.71935653686523 16.49989891052246 12.42020130157471 24.7990550994873 12.42020130157471 35.00009918212891 C 12.42020130157471 45.20064544677734 20.71935653686523 53.49939727783203 30.92040061950684 53.49939727783203 C 41.12094497680664 53.49939727783203 49.41970062255859 45.20064544677734 49.41970062255859 35.00009918212891 C 49.41970062255859 24.7990550994873 41.12094497680664 16.49989891052246 30.92040061950684 16.49989891052246 Z M 3.20203423500061 51.80281066894531 L 3.201989889144897 51.80281066894531 L 3.201812028884888 51.80281066894531 C 3.133067607879639 51.80279922485352 2.897889852523804 51.78459930419922 2.76286768913269 51.55064392089844 C 2.623645305633545 51.30950927734375 2.706501007080078 51.00044250488281 2.947367668151855 50.86137771606445 L 3.023323059082031 50.81753158569336 L 3.096023082733154 50.76846694946289 L 5.998212814331055 48.80961990356445 C 6.06273365020752 48.78030395507813 6.130658626556396 48.76547622680664 6.200756549835205 48.76547622680664 C 6.269500732421875 48.76547622680664 6.504245281219482 48.78363418579102 6.639034271240234 49.01735305786133 C 6.726111888885498 49.16809844970703 6.714823246002197 49.30912017822266 6.690167427062988 49.40116500854492 C 6.665489673614502 49.49333190917969 6.604701042175293 49.62132263183594 6.455245494842529 49.7076530456543 L 6.379590034484863 49.7513542175293 L 6.307178497314453 49.80023193359375 L 3.405766487121582 51.7585563659668 C 3.340902090072632 51.78794479370117 3.272582054138184 51.80281066894531 3.20203423500061 51.80281066894531 Z M 58.66025543212891 51.54970932006836 C 58.57429885864258 51.54970932006836 58.49190521240234 51.52782821655273 58.41523742675781 51.48466491699219 L 55.39985656738281 49.71597671508789 L 55.39272308349609 49.71179962158203 L 55.38555526733398 49.7076530456543 C 55.14469909667969 49.56851959228516 55.06184387207031 49.25956726074219 55.20084381103516 49.01895523071289 C 55.33655548095703 48.78363418579102 55.57151031494141 48.76547622680664 55.64031219482422 48.76547622680664 C 55.7259407043457 48.76547622680664 55.80837249755859 48.78751754760742 55.88542556762695 48.83098983764648 L 58.89986801147461 50.59965515136719 L 58.90743255615234 50.60408782958984 L 58.91503524780273 50.60847854614258 C 59.15589904785156 50.74754333496094 59.2387580871582 51.05661010742188 59.09972381591797 51.29743194580078 C 58.96456909179688 51.53150939941406 58.72917938232422 51.54970932006836 58.66025543212891 51.54970932006836 Z M 6.201067447662354 21.23451042175293 C 6.113623142242432 21.23451042175293 6.029834270477295 21.21172142028809 5.952045440673828 21.16678810119629 L 5.930123329162598 21.15413284301758 L 5.907956600189209 21.14192199707031 L 2.739518404006958 19.39633750915527 C 2.599562406539917 19.31061172485352 2.541659832000732 19.18772125244141 2.517756462097168 19.0984992980957 C 2.493067502975464 19.00639915466309 2.48180103302002 18.86515426635742 2.568278789520264 18.71536636352539 C 2.703245401382446 18.48148727416992 2.938367605209351 18.46334457397461 3.007223129272461 18.46334457397461 C 3.094689846038818 18.46334457397461 3.1788010597229 18.48629951477051 3.257234334945679 18.53157615661621 L 3.279145479202271 18.54423332214355 L 3.30131196975708 18.55644416809082 L 6.468146324157715 20.30025100708008 C 6.69895601272583 20.44279861450195 6.77623176574707 20.74520874023438 6.639623165130615 20.98183250427246 C 6.504356384277344 21.21635437011719 6.269756317138672 21.23451042175293 6.201067447662354 21.23451042175293 Z M 55.6404914855957 21.23431015014648 L 55.64044570922852 21.23431015014648 C 55.57156753540039 21.23429870605469 55.33639144897461 21.21609878540039 55.20136642456055 20.98214340209961 C 55.06205749511719 20.74085426330566 55.14476776123047 20.43164443969727 55.38555526733398 20.29254341125488 L 58.43099975585938 18.536865234375 C 58.51094436645508 18.49068832397461 58.59466934204102 18.46784400939941 58.68177795410156 18.46784400939941 C 58.750732421875 18.46784400939941 58.98624420166016 18.48605537414551 59.12165832519531 18.72045516967773 C 59.20780181884766 18.86965560913086 59.196533203125 19.01089859008789 59.17184448242188 19.10299873352051 C 59.14724349975586 19.19482231140137 59.08664703369141 19.32229995727539 58.93764495849609 19.40823173522949 L 55.8907356262207 21.16616630554199 C 55.8123893737793 21.21136665344238 55.72816848754883 21.23431015014648 55.6404914855957 21.23431015014648 Z M 30.92040061950684 6.963499069213867 C 30.64237785339355 6.963499069213867 30.41620063781738 6.737321376800537 30.41620063781738 6.459299087524414 L 30.41620063781738 3.004199266433716 C 30.41620063781738 2.726176977157593 30.64237785339355 2.499999284744263 30.92040061950684 2.499999284744263 C 31.19842338562012 2.499999284744263 31.42460060119629 2.726176977157593 31.42460060119629 3.004199266433716 L 31.42460060119629 6.459299087524414 C 31.42460060119629 6.737321376800537 31.19842338562012 6.963499069213867 30.92040061950684 6.963499069213867 Z" stroke="none"/>
      <path d="M 30.9204044342041 70.00020599365234 C 29.26080131530762 70.00020599365234 27.91619682312012 68.65470123291016 27.91619682312012 66.99599456787109 L 27.91619682312012 63.54091262817383 C 27.91619682312012 61.88130569458008 29.26080131530762 60.53670501708984 30.9204044342041 60.53670501708984 C 32.58000946044922 60.53670501708984 33.92459106445313 61.88130569458008 33.92459106445313 63.54091262817383 L 33.92459106445313 66.99599456787109 C 33.92459106445313 68.65470123291016 32.58000946044922 70.00020599365234 30.9204044342041 70.00020599365234 Z M 30.9204044342041 56.02949523925781 C 19.32480049133301 56.02949523925781 9.890092849731445 46.595703125 9.890092849731445 35.00009918212891 C 9.890092849731445 23.40449523925781 19.32480049133301 13.96980762481689 30.9204044342041 13.96980762481689 C 42.51601028442383 13.96980762481689 51.94980239868164 23.40449523925781 51.94980239868164 35.00009918212891 C 51.94980239868164 46.595703125 42.51601028442383 56.02949523925781 30.9204044342041 56.02949523925781 Z M 30.9204044342041 18.99991226196289 C 22.09859275817871 18.99991226196289 14.92019653320313 26.17739105224609 14.92019653320313 35.00009918212891 C 14.92019653320313 43.82189178466797 22.09859275817871 50.99941253662109 30.9204044342041 50.99941253662109 C 39.74309158325195 50.99941253662109 46.91969680786133 43.82189178466797 46.91969680786133 35.00009918212891 C 46.91969680786133 26.17739105224609 39.74309158325195 18.99991226196289 30.9204044342041 18.99991226196289 Z M 3.202085733413696 54.30280685424805 C 3.201961040496826 54.30280685424805 3.201842308044434 54.30280685424805 3.201717615127563 54.30280685424805 C 2.164800882339478 54.3027229309082 1.154905080795288 53.76593399047852 0.5975925922393799 52.80030822753906 C -0.2321990579366684 51.36299514770508 0.2600926160812378 49.52610015869141 1.697405099868774 48.69630813598633 L 4.701592445373535 46.66859817504883 C 5.174494743347168 46.39541244506836 5.691170215606689 46.26547622680664 6.200757026672363 46.26547622680664 C 7.239014625549316 46.26547622680664 8.248693466186523 46.80429458618164 8.804697036743164 47.76841354370117 C 9.634509086608887 49.20480728149414 9.142196655273438 51.04259872436523 7.705801010131836 51.87240982055664 L 4.701592445373535 53.90010070800781 C 4.228833198547363 54.17284393310547 3.712297439575195 54.30280685424805 3.202085733413696 54.30280685424805 Z M 58.66032028198242 54.04970169067383 C 58.66025543212891 54.04970169067383 58.66032409667969 54.04970169067383 58.66025924682617 54.04970169067383 C 58.14994812011719 54.04970169067383 57.63317489624023 53.91976547241211 57.16080093383789 53.64720153808594 L 54.135009765625 51.87240982055664 C 52.69859313964844 51.04259872436523 52.20630264282227 49.20480728149414 53.03611373901367 47.76841354370117 C 53.59206771850586 46.80438232421875 54.60189437866211 46.26547622680664 55.64032363891602 46.26547622680664 C 56.1501350402832 46.26547622680664 56.66682815551758 46.39536285400391 57.14011383056641 46.66859817504883 L 60.16500854492188 48.44341278076172 C 61.60230255126953 49.2732048034668 62.0945930480957 51.11009979248047 61.26480102539063 52.54741287231445 C 60.70698165893555 53.51350021362305 59.69685745239258 54.04970169067383 58.66032028198242 54.04970169067383 Z M 6.201030254364014 23.73451614379883 C 5.690738677978516 23.73449516296387 5.173988342285156 23.60445404052734 4.701592445373535 23.33159828186035 L 1.50300931930542 21.56941223144531 C 0.06569678336381912 20.7404956817627 -0.4265948832035065 18.9027042388916 0.403196781873703 17.46541213989258 C 0.9590993523597717 16.50207328796387 1.968899369239807 15.96334171295166 3.007227659225464 15.96334171295166 C 3.517130851745605 15.96334171295166 4.033831119537354 16.09320640563965 4.50719690322876 16.36649513244629 L 7.705801010131836 18.1278076171875 C 9.142196655273438 18.95759963989258 9.634509086608887 20.79449462890625 8.804697036743164 22.23180770874023 C 8.24744701385498 23.19795417785645 7.237571716308594 23.73451614379883 6.201030254364014 23.73451614379883 Z M 55.64046478271484 23.73430824279785 C 55.6403694152832 23.73430824279785 55.64031219482422 23.73430824279785 55.64021682739258 23.73430824279785 C 54.60330200195313 23.73422431945801 53.59340667724609 23.19745254516602 53.03611373901367 22.23180770874023 C 52.20630264282227 20.79449462890625 52.69859313964844 18.95759963989258 54.135009765625 18.1278076171875 L 57.18240356445313 16.37099456787109 C 57.65538787841797 16.09775733947754 58.17207336425781 15.96784114837646 58.68178176879883 15.96784114837646 C 59.71999740600586 15.96784114837646 60.72983551025391 16.50647735595703 61.28640365600586 17.46989059448242 C 62.11619567871094 18.90720367431641 61.62390518188477 20.7449951171875 60.18659210205078 21.57389068603516 L 57.14011383056641 23.33159828186035 C 56.66730499267578 23.60436248779297 56.15070343017578 23.73430824279785 55.64046478271484 23.73430824279785 Z M 30.9204044342041 9.463495254516602 C 29.26080131530762 9.463495254516602 27.91619682312012 8.118911743164063 27.91619682312012 6.459307670593262 L 27.91619682312012 3.004203319549561 C 27.91619682312012 1.34459912776947 29.26080131530762 -4.984537554264534e-06 30.9204044342041 -4.984537554264534e-06 C 32.58000946044922 -4.984537554264534e-06 33.92459106445313 1.34459912776947 33.92459106445313 3.004203319549561 L 33.92459106445313 6.459307670593262 C 33.92459106445313 8.118911743164063 32.58000946044922 9.463495254516602 30.9204044342041 9.463495254516602 Z" stroke="none" fill="#fff"/>
    </g>
  </g>
</svg>
