<svg xmlns="http://www.w3.org/2000/svg" xmlns:xlink="http://www.w3.org/1999/xlink" width="79.69" height="88" viewBox="0 0 79.69 88">
  <defs>
    <filter id="Combined_Shape" x="0" y="0" width="79.69" height="88" filterUnits="userSpaceOnUse">
      <feOffset dy="6" input="SourceAlpha"/>
      <feGaussianBlur stdDeviation="3" result="blur"/>
      <feFlood flood-opacity="0.369"/>
      <feComposite operator="in" in2="blur"/>
      <feComposite in="SourceGraphic"/>
    </filter>
  </defs>
  <g transform="matrix(1, 0, 0, 1, 0, 0)" filter="url(#Combined_Shape)">
    <g id="Combined_Shape-2" data-name="Combined Shape" transform="translate(9 3)" fill="#fff" stroke-miterlimit="10">
      <path d="M 30.92040061950684 67.50019836425781 C 30.64237785339355 67.50019836425781 30.41620063781738 67.27402496337891 30.41620063781738 66.99600219726563 L 30.41620063781738 63.54089736938477 C 30.41620063781738 63.26287841796875 30.64237785339355 63.03669738769531 30.92040061950684 63.03669738769531 C 31.19842338562012 63.03669738769531 31.42460060119629 63.26287841796875 31.42460060119629 63.54089736938477 L 31.42460060119629 66.99600219726563 C 31.42460060119629 67.27402496337891 31.19842338562012 67.50019836425781 30.92040061950684 67.50019836425781 Z M 30.92040061950684 53.52949905395508 C 20.70275688171387 53.52949905395508 12.39010047912598 45.21724319458008 12.39010047912598 35.00009918212891 C 12.39010047912598 24.78245544433594 20.70275688171387 16.46979904174805 30.92040061950684 16.46979904174805 C 41.13754653930664 16.46979904174805 49.44980239868164 24.78245544433594 49.44980239868164 35.00009918212891 C 49.44980239868164 45.21724319458008 41.13754653930664 53.52949905395508 30.92040061950684 53.52949905395508 Z M 3.209336280822754 51.80239868164063 L 3.209112167358398 51.80239868164063 L 3.201300859451294 51.80239868164063 C 3.132523059844971 51.80239868164063 2.897645473480225 51.78427505493164 2.763100862503052 51.55105590820313 C 2.623645305633545 51.30950927734375 2.706501007080078 51.00044250488281 2.947367668151855 50.86137771606445 L 3.023323059082031 50.81753158569336 L 3.096023082733154 50.76846694946289 L 5.998212814331055 48.80961990356445 C 6.06273365020752 48.78030395507813 6.130658626556396 48.76547622680664 6.200756549835205 48.76547622680664 C 6.269500732421875 48.76547622680664 6.504245281219482 48.78363418579102 6.639034271240234 49.01735305786133 C 6.726111888885498 49.16809844970703 6.714823246002197 49.30912017822266 6.690167427062988 49.40116500854492 C 6.665489673614502 49.49333190917969 6.604701042175293 49.62132263183594 6.455245494842529 49.7076530456543 L 6.379590034484863 49.7513542175293 L 6.307178497314453 49.80023193359375 L 3.405426740646362 51.75878524780273 C 3.342484712600708 51.78734970092773 3.276742696762085 51.8019905090332 3.209336280822754 51.80239868164063 Z M 58.66020202636719 51.54949951171875 C 58.57390975952148 51.54949951171875 58.49148559570313 51.52766418457031 58.41511917114258 51.48459625244141 L 55.39985656738281 49.71597671508789 L 55.39272308349609 49.71179962158203 L 55.38555526733398 49.7076530456543 C 55.14469909667969 49.56851959228516 55.06184387207031 49.25956726074219 55.20084381103516 49.01895523071289 C 55.33655548095703 48.78363418579102 55.57151031494141 48.76547622680664 55.64031219482422 48.76547622680664 C 55.7259407043457 48.76547622680664 55.80837249755859 48.78751754760742 55.88542556762695 48.83098983764648 L 58.89986801147461 50.59965515136719 L 58.90743255615234 50.60408782958984 L 58.91503524780273 50.60847854614258 C 59.15589904785156 50.74754333496094 59.2387580871582 51.05661010742188 59.09972381591797 51.29743194580078 C 58.96469116210938 51.53133392333984 58.72916793823242 51.54949951171875 58.66020202636719 51.54949951171875 Z M 6.201001167297363 21.23479843139648 C 6.11398983001709 21.23479843139648 6.029967784881592 21.21176528930664 5.951267719268799 21.16634368896484 L 5.929734230041504 21.15390968322754 L 5.907956600189209 21.14192199707031 L 2.739518404006958 19.39633750915527 C 2.599562406539917 19.31061172485352 2.541659832000732 19.18772125244141 2.517756462097168 19.0984992980957 C 2.493067502975464 19.00639915466309 2.48180103302002 18.86515426635742 2.568278789520264 18.71536636352539 C 2.703245401382446 18.48148727416992 2.938367605209351 18.46334457397461 3.007223129272461 18.46334457397461 C 3.094689846038818 18.46334457397461 3.1788010597229 18.48629951477051 3.257234334945679 18.53157615661621 L 3.279145479202271 18.54423332214355 L 3.30131196975708 18.55644416809082 L 6.468146324157715 20.30025100708008 C 6.69895601272583 20.44279861450195 6.77623176574707 20.74520874023438 6.639623165130615 20.98183250427246 C 6.504267692565918 21.21667671203613 6.269690036773682 21.23479843139648 6.201001167297363 21.23479843139648 Z M 55.64498901367188 21.23390007019043 L 55.63980102539063 21.23390007019043 C 55.57102203369141 21.23390007019043 55.33614349365234 21.21577644348145 55.20159912109375 20.9825553894043 C 55.06205749511719 20.74085426330566 55.14476776123047 20.43164443969727 55.38555526733398 20.29254341125488 L 58.43099975585938 18.536865234375 C 58.51094436645508 18.49068832397461 58.59466934204102 18.46784400939941 58.68177795410156 18.46784400939941 C 58.750732421875 18.46784400939941 58.98624420166016 18.48605537414551 59.12165832519531 18.72045516967773 C 59.20780181884766 18.86965560913086 59.196533203125 19.01089859008789 59.17184448242188 19.10299873352051 C 59.14724349975586 19.19482231140137 59.08664703369141 19.32229995727539 58.93764495849609 19.40823173522949 L 55.8907356262207 21.16616630554199 C 55.81276702880859 21.21116638183594 55.73019027709961 21.23390007019043 55.64498901367188 21.23390007019043 Z M 30.92040061950684 6.963499069213867 C 30.64237785339355 6.963499069213867 30.41620063781738 6.737321376800537 30.41620063781738 6.459299087524414 L 30.41620063781738 3.004199266433716 C 30.41620063781738 2.726176977157593 30.64237785339355 2.499999284744263 30.92040061950684 2.499999284744263 C 31.19842338562012 2.499999284744263 31.42460060119629 2.726176977157593 31.42460060119629 3.004199266433716 L 31.42460060119629 6.459299087524414 C 31.42460060119629 6.737321376800537 31.19842338562012 6.963499069213867 30.92040061950684 6.963499069213867 Z" stroke="none"/>
      <path d="M 30.9204044342041 51.02949523925781 C 39.75905227661133 51.02949523925781 46.94980239868164 43.8387451171875 46.94980239868164 35.00009918212891 C 46.94980239868164 26.16097450256348 39.75905227661133 18.96980667114258 30.9204044342041 18.96980667114258 C 22.08125877380371 18.96980667114258 14.89009284973145 26.16097450256348 14.89009284973145 35.00009918212891 C 14.89009284973145 43.8387451171875 22.08125877380371 51.02949523925781 30.9204044342041 51.02949523925781 M 30.9204044342041 70.00020599365234 C 29.26080131530762 70.00020599365234 27.91619682312012 68.65470123291016 27.91619682312012 66.99599456787109 L 27.91619682312012 63.54091262817383 C 27.91619682312012 61.88130569458008 29.26080131530762 60.53670501708984 30.9204044342041 60.53670501708984 C 32.58000946044922 60.53670501708984 33.92459106445313 61.88130569458008 33.92459106445313 63.54091262817383 L 33.92459106445313 66.99599456787109 C 33.92459106445313 68.65470123291016 32.58000946044922 70.00020599365234 30.9204044342041 70.00020599365234 Z M 30.9204044342041 56.02949523925781 C 19.32480049133301 56.02949523925781 9.890092849731445 46.595703125 9.890092849731445 35.00009918212891 C 9.890092849731445 23.40449523925781 19.32480049133301 13.96980762481689 30.9204044342041 13.96980762481689 C 42.51601028442383 13.96980762481689 51.94980239868164 23.40449523925781 51.94980239868164 35.00009918212891 C 51.94980239868164 46.595703125 42.51601028442383 56.02949523925781 30.9204044342041 56.02949523925781 Z M 3.20655083656311 54.30241012573242 C 3.204780101776123 54.30241012573242 3.20307183265686 54.30241012573242 3.201300859451294 54.30241012573242 C 2.164509296417236 54.30241012573242 1.154696822166443 53.76599502563477 0.5975925922393799 52.80030822753906 C -0.2321990579366684 51.36299514770508 0.2600926160812378 49.52610015869141 1.697405099868774 48.69630813598633 L 4.701592445373535 46.66859817504883 C 5.174494743347168 46.39541244506836 5.691170215606689 46.26547622680664 6.200757026672363 46.26547622680664 C 7.239014625549316 46.26547622680664 8.248693466186523 46.80429458618164 8.804697036743164 47.76841354370117 C 9.634509086608887 49.20480728149414 9.142196655273438 51.04259872436523 7.705801010131836 51.87240982055664 L 4.701592445373535 53.90010070800781 C 4.230738639831543 54.17184829711914 3.715113401412964 54.30239105224609 3.20655083656311 54.30241012573242 Z M 58.66019821166992 54.04949569702148 C 58.14990615844727 54.04949569702148 57.63330078125 53.9199104309082 57.16080093383789 53.64720153808594 L 54.135009765625 51.87240982055664 C 52.69859313964844 51.04259872436523 52.20630264282227 49.20480728149414 53.03611373901367 47.76841354370117 C 53.59206771850586 46.80438232421875 54.60189437866211 46.26547622680664 55.64032363891602 46.26547622680664 C 56.1501350402832 46.26547622680664 56.66682815551758 46.39536285400391 57.14011383056641 46.66859817504883 L 60.16500854492188 48.44341278076172 C 61.60230255126953 49.2732048034668 62.0945930480957 51.11009979248047 61.26480102539063 52.54741287231445 C 60.70680236816406 53.51399612426758 59.6970100402832 54.04949569702148 58.66019821166992 54.04949569702148 Z M 6.201009273529053 23.73480796813965 C 5.690696716308594 23.73480796813965 5.174092769622803 23.60430717468262 4.701592445373535 23.33159828186035 L 1.50300931930542 21.56941223144531 C 0.06569678336381912 20.7404956817627 -0.4265948832035065 18.9027042388916 0.403196781873703 17.46541213989258 C 0.9590993523597717 16.50207328796387 1.968899369239807 15.96334171295166 3.007227659225464 15.96334171295166 C 3.517130851745605 15.96334171295166 4.033831119537354 16.09320640563965 4.50719690322876 16.36649513244629 L 7.705801010131836 18.1278076171875 C 9.142196655273438 18.95759963989258 9.634509086608887 20.79449462890625 8.804697036743164 22.23180770874023 C 8.247592926025391 23.19839096069336 7.237801074981689 23.73480796813965 6.201009273529053 23.73480796813965 Z M 55.64505004882813 23.73391151428223 C 55.64328002929688 23.73391151428223 55.64157104492188 23.73391151428223 55.63980102539063 23.73389053344727 C 54.60300827026367 23.73389053344727 53.59319686889648 23.19749450683594 53.03611373901367 22.23180770874023 C 52.20630264282227 20.79449462890625 52.69859313964844 18.95759963989258 54.135009765625 18.1278076171875 L 57.18240356445313 16.37099456787109 C 57.65538787841797 16.09775733947754 58.17207336425781 15.96784114837646 58.68178176879883 15.96784114837646 C 59.71999740600586 15.96784114837646 60.72983551025391 16.50647735595703 61.28640365600586 17.46989059448242 C 62.11619567871094 18.90720367431641 61.62390518188477 20.7449951171875 60.18659210205078 21.57389068603516 L 57.14011383056641 23.33159828186035 C 56.66923904418945 23.60334968566895 56.15361404418945 23.73389053344727 55.64505004882813 23.73391151428223 Z M 30.9204044342041 9.463495254516602 C 29.26080131530762 9.463495254516602 27.91619682312012 8.118911743164063 27.91619682312012 6.459307670593262 L 27.91619682312012 3.004203319549561 C 27.91619682312012 1.34459912776947 29.26080131530762 -4.984537554264534e-06 30.9204044342041 -4.984537554264534e-06 C 32.58000946044922 -4.984537554264534e-06 33.92459106445313 1.34459912776947 33.92459106445313 3.004203319549561 L 33.92459106445313 6.459307670593262 C 33.92459106445313 8.118911743164063 32.58000946044922 9.463495254516602 30.9204044342041 9.463495254516602 Z" stroke="none" fill="#fff"/>
    </g>
  </g>
</svg>
