<svg xmlns="http://www.w3.org/2000/svg" width="55.646" height="70.4" viewBox="0 0 55.646 70.4">
  <g id="online-food-others" transform="translate(-998.794 -599.8)">
    <g id="Group-5" transform="translate(999 600)">
      <path id="Shape" d="M54.763,10.52a1.367,1.367,0,0,0-1.339-.261,42.125,42.125,0,0,0-9.666,4.779,22.275,22.275,0,0,0,1.5-8.062v-1.1a1.367,1.367,0,0,0-1.865-1.273,28.322,28.322,0,0,0-9.745,6.4A20.805,20.805,0,0,0,29,.885l-.339-.4a1.367,1.367,0,0,0-2.088,0l-.339.4a20.8,20.8,0,0,0-4.643,10.121,28.31,28.31,0,0,0-9.743-6.4A1.367,1.367,0,0,0,9.983,5.879v1.1a22.277,22.277,0,0,0,1.5,8.064,42.109,42.109,0,0,0-9.669-4.781,1.368,1.368,0,0,0-1.787,1.55l.618,3.24a28.09,28.09,0,0,0,8.82,15.576H3.008a1.367,1.367,0,0,0-1.367,1.367v6.016a1.367,1.367,0,0,0,1.367,1.367H4.02l6.286,29.543A1.367,1.367,0,0,0,11.644,70H43.591a1.368,1.368,0,0,0,1.337-1.082l6.286-29.543h1.012a1.367,1.367,0,0,0,1.367-1.367V31.992a1.367,1.367,0,0,0-1.367-1.367H45.771a28.089,28.089,0,0,0,8.82-15.576l.618-3.24A1.367,1.367,0,0,0,54.763,10.52ZM27.617,3.541a18.065,18.065,0,0,1,3.546,10.318,28.368,28.368,0,0,0-3.545,6.106,28.408,28.408,0,0,0-3.547-6.109A18.064,18.064,0,0,1,27.617,3.541ZM26.294,24.534a1.365,1.365,0,0,0,1.323,1.031,1.367,1.367,0,0,0,1.328-1.035A25.7,25.7,0,0,1,42.494,7.983a19.419,19.419,0,0,1-5.7,12.823,1.373,1.373,0,0,0-.185.231,42.056,42.056,0,0,0-5.717,7.524L29.66,30.625H25.574l-1.229-2.064a42.087,42.087,0,0,0-5.712-7.518,1.356,1.356,0,0,0-.189-.237,19.415,19.415,0,0,1-5.7-12.823A25.7,25.7,0,0,1,26.294,24.534Zm-22.966-10-.161-.843A39.446,39.446,0,0,1,22,29.96l.4.665H13.886A25.327,25.327,0,0,1,3.328,14.536Zm47.531,22.1H33.787a1.367,1.367,0,1,0,0,2.734H48.419L42.484,67.266H12.751L6.816,39.375H34.482a1.367,1.367,0,1,0,0-2.734H4.375V33.359H50.859Zm1.047-22.1A25.324,25.324,0,0,1,41.349,30.625H32.842l.4-.665A39.448,39.448,0,0,1,52.067,13.693Z" fill="#fff" stroke="#fff" stroke-width="0.4"/>
    </g>
  </g>
</svg>
