<svg xmlns="http://www.w3.org/2000/svg" width="89.454" height="61.282" viewBox="0 0 89.454 61.282">
  <g id="Page-1" transform="translate(-0.763 -0.8)">
    <g id="online-food-others" transform="translate(-458 -354)">
      <g id="dish" transform="translate(459 355)">
        <path id="Shape" d="M88.644,48.465a3,3,0,0,0-2.677-1.633H84.257A40.65,40.65,0,0,0,51.448,8.554a7.226,7.226,0,0,0,.067-.749,7.806,7.806,0,0,0-15.611,0,6.84,6.84,0,0,0,.067.749A40.649,40.649,0,0,0,3.161,46.832H3.013A3.011,3.011,0,0,0,.563,51.594l3.528,4.939a10.4,10.4,0,0,0,8.45,4.349h63.9a10.4,10.4,0,0,0,8.45-4.349l3.53-4.939A3,3,0,0,0,88.644,48.465ZM39.036,8.074c-.006-.09-.009-.181-.009-.268a4.684,4.684,0,0,1,9.367,0c0,.089,0,.178-.01.268-.073-.007-.147-.011-.219-.018-.537-.06-1.077-.1-1.621-.139-.2-.014-.4-.035-.6-.045-.743-.042-1.487-.065-2.237-.065s-1.5.023-2.236.064c-.2.011-.4.031-.6.045-.543.037-1.083.081-1.62.139-.074.009-.147.011-.221.02ZM38.1,11.348c.835-.125,1.678-.216,2.521-.285q.258-.021.515-.037a38.356,38.356,0,0,1,5.151,0l.515.037c.843.069,1.684.16,2.521.285A37.531,37.531,0,0,1,81.143,46.833H6.275A37.533,37.533,0,0,1,38.1,11.348Zm44.248,43.37a7.281,7.281,0,0,1-5.91,3.043h-63.9a7.283,7.283,0,0,1-5.91-3.041l-3.4-4.764H85.751Z" fill="#fff" stroke="#fff" stroke-width="0.4"/>
        <path id="Path" d="M26.772,18.576a34.4,34.4,0,0,0-15.82,23.293,1.56,1.56,0,0,0,1.257,1.815,1.407,1.407,0,0,0,.281.027,1.561,1.561,0,0,0,1.534-1.28,31.24,31.24,0,0,1,14.34-21.168,1.561,1.561,0,1,0-1.593-2.686Z" fill="#fff" stroke="#fff" stroke-width="0.4"/>
      </g>
    </g>
  </g>
</svg>
