<svg xmlns="http://www.w3.org/2000/svg" width="67.263" height="70.4" viewBox="0 0 67.263 70.4">
  <g id="Page-1" transform="translate(-0.698 -0.8)">
    <g id="online-food-others" transform="translate(-208 -601)">
      <g id="Group-2" transform="translate(209 602)">
        <path id="Path" d="M62.276,50.86a1.148,1.148,0,0,0-2.164.768A4.419,4.419,0,1,1,58.3,49.361a1.148,1.148,0,1,0,1.221-1.945,6.716,6.716,0,1,0,2.757,3.444Z" fill="#fff" stroke="#fff" stroke-width="0.4"/>
        <path id="Shape" d="M64.544,46.568A10.8,10.8,0,0,0,48.472,45.3l-9.1-12.957L43.488,8.8a19.346,19.346,0,0,1,2.356,13.087L43.5,35.274a1.148,1.148,0,1,0,2.262.4l2.341-13.389A21.643,21.643,0,0,0,43.742,5.111a1.148,1.148,0,0,0-2.031.516L37.5,29.69,28.919,17.46a1.148,1.148,0,0,0-1.879,1.32L43.677,42.473l-2.817,3.948-13.766-19.6a19.344,19.344,0,0,1-3.432-12.846l3.3,4.7a1.148,1.148,0,0,0,1.879-1.32l-4.923-7.008a1.149,1.149,0,0,0-2.058.4,21.642,21.642,0,0,0,3.351,17.394L35.271,42.461,34.355,47.7a10.8,10.8,0,1,0-5.307,20.876,10.934,10.934,0,0,0,1.884.164A10.806,10.806,0,0,0,41.548,59.8l1.176-6.727,4.293,6.112a11.034,11.034,0,0,0,9.02,4.693,10.6,10.6,0,0,0,6.141-1.952,10.8,10.8,0,0,0,2.366-15.357ZM39.285,59.4a8.5,8.5,0,1,1-4.561-9.065,1.148,1.148,0,0,0,1.647-.828l.768-4.391,3.718,5.294Zm25.065-5a8.435,8.435,0,0,1-9.8,7.05A8.679,8.679,0,0,1,48.9,57.863l-5.884-8.378,0-.006-.748-1.065,2.817-3.948,2.34,3.332a1.148,1.148,0,0,0,1.842.05A8.5,8.5,0,0,1,64.35,54.4Z" fill="#fff" stroke="#fff" stroke-width="0.4"/>
        <path id="Path-2" data-name="Path" d="M21.314,43.443l-.008-.046a3.243,3.243,0,0,0-3.194-2.671H12.274a3.707,3.707,0,0,1-2.634-1.02h7.5a1.148,1.148,0,0,0,0-2.3H8.789q-.206-.984-.383-1.969h8.085a1.148,1.148,0,0,0,0-2.3H8.033q-.142-.983-.255-1.967h8.452a1.148,1.148,0,0,0,0-2.3H7.558q-.078-.984-.127-1.969h8.8a1.148,1.148,0,0,0,0-2.3H7.356q-.015-.985,0-1.969h8.961a1.148,1.148,0,1,0,0-2.3H7.431q.049-.984.127-1.967h8.933a1.148,1.148,0,1,0,0-2.3H7.779q.113-.985.255-1.969h8.729a1.148,1.148,0,1,0,0-2.3H8.406q.177-.985.383-1.969h8.353a1.148,1.148,0,0,0,0-2.3h-7.5a3.708,3.708,0,0,1,2.634-1.02h5.838a3.242,3.242,0,0,0,3.195-2.673l.007-.042A3.245,3.245,0,0,0,18.119,0H7.179A5.9,5.9,0,0,0,1.5,4.358C.2,9.166-.748,24.155.811,50.144A1.148,1.148,0,1,0,3.1,50.007c-1.219-20.325-1.194-38.39.613-45.047A3.6,3.6,0,0,1,7.179,2.3h10.94a.949.949,0,0,1,.932,1.132l-.005.03a.947.947,0,0,1-.934.781H12.274a5.4,5.4,0,0,0-5.44,3.8,69.039,69.039,0,0,0,0,31.177,5.4,5.4,0,0,0,5.44,3.8h5.838a.948.948,0,0,1,.934.78l.008.046a.948.948,0,0,1-.933,1.115H14.279A4.258,4.258,0,0,0,10.048,48.9L8.834,65.6a2.269,2.269,0,0,1-4.521.047c-.322-3.439-.8-8.881-1.229-15.276a1.148,1.148,0,1,0-2.291.155c.434,6.42.911,11.882,1.234,15.335a4.565,4.565,0,0,0,9.1-.095l1.215-16.7a1.953,1.953,0,0,1,1.94-1.8h3.842a3.245,3.245,0,0,0,3.193-3.818Z" fill="#fff" stroke="#fff" stroke-width="0.4"/>
        <path id="Shape-2" data-name="Shape" d="M32.065,51.324a6.716,6.716,0,1,0-2.313,13.23,6.808,6.808,0,0,0,1.171.1,6.717,6.717,0,0,0,1.142-13.332Zm3.2,7.376a4.419,4.419,0,1,1-3.592-5.114A4.423,4.423,0,0,1,35.261,58.7Z" fill="#fff" stroke="#fff" stroke-width="0.4"/>
        <path id="Path-3" data-name="Path" d="M40.533,39.979a1.147,1.147,0,1,0,.589,1.209A1.159,1.159,0,0,0,40.533,39.979Z" fill="#fff" stroke="#fff" stroke-width="0.4"/>
      </g>
    </g>
  </g>
</svg>
