<svg xmlns="http://www.w3.org/2000/svg" width="78.313" height="70.4" viewBox="0 0 78.313 70.4">
  <path id="Shape" d="M77.748,21.674,70.426,7.244V1.521A1.522,1.522,0,0,0,68.9,0H9.008A1.522,1.522,0,0,0,7.487,1.521V7.245L.165,21.674A1.523,1.523,0,0,0,0,22.362v3.744a9.022,9.022,0,0,0,7.487,8.877V66.956H5.929a1.522,1.522,0,0,0,0,3.043H71.983a1.522,1.522,0,1,0,0-3.044H70.426V34.983a9.021,9.021,0,0,0,7.487-8.877V22.362A1.521,1.521,0,0,0,77.748,21.674ZM10.53,3.043H67.382V6.087H10.53ZM59.9,26.106a5.965,5.965,0,0,1-11.931,0V22.362q0-.077-.008-.154L46.63,9.131H55.8l4.1,13.458Zm-14.974,0a5.965,5.965,0,0,1-11.93,0V22.439L34.342,9.131h9.229l1.35,13.309v3.667ZM29.948,22.362v3.744a5.965,5.965,0,0,1-11.93,0V22.589l4.1-13.458h9.168L29.956,22.209A1.483,1.483,0,0,0,29.948,22.362Zm-26.9,3.744v-3.38l6.9-13.6h8.991L15.04,21.919a1.524,1.524,0,0,0-.066.443v3.744a5.965,5.965,0,0,1-11.93,0Zm7.487,8.877A9.025,9.025,0,0,0,16.5,31.11a9,9,0,0,0,14.974,0,9,9,0,0,0,14.974,0,9,9,0,0,0,14.974,0,9.024,9.024,0,0,0,5.965,3.874V66.956H64.339V41.087a1.522,1.522,0,0,0-1.522-1.522H15.1a1.522,1.522,0,0,0-1.522,1.522v21.3A1.522,1.522,0,0,0,15.1,63.913H49.121v3.044H10.53ZM16.617,57.45,31.459,42.609h5.3L33.867,45.5a1.522,1.522,0,1,0,2.152,2.152l5.046-5.045h8.056V60.869h-32.5Zm0-4.3V42.609H27.155Zm35.548,13.81V42.609H61.3V66.956Zm22.7-40.85a5.965,5.965,0,0,1-11.93,0V22.362a1.517,1.517,0,0,0-.066-.443L58.979,9.131H67.97l6.9,13.6Z" transform="translate(0.2 0.2)" fill="#fff" stroke="#fff" stroke-width="0.4"/>
</svg>
