<svg xmlns="http://www.w3.org/2000/svg" width="76.397" height="71.4" viewBox="0 0 76.397 71.4">
  <path id="Combined_Shape_Copy_10" data-name="Combined Shape Copy 10" d="M40.933,69.455,16.619,50H5a5.005,5.005,0,0,1-5-5V25a5.005,5.005,0,0,1,5-5h11.62L40.938.548A2.484,2.484,0,0,1,42.493,0a2.549,2.549,0,0,1,1.09.248A2.524,2.524,0,0,1,45,2.5v65a2.5,2.5,0,0,1-4.065,1.955ZM20,23.707V46.3l20,16V7.708ZM5,45H15V25H5Zm56.173,14.71a2.5,2.5,0,0,1,.015-3.535,29.849,29.849,0,0,0,0-42.348,2.5,2.5,0,1,1,3.52-3.55,34.849,34.849,0,0,1,0,49.449,2.5,2.5,0,0,1-3.535-.015Zm-7.05-7.05a2.493,2.493,0,0,1,.021-3.535,19.965,19.965,0,0,0,0-28.248,2.5,2.5,0,1,1,3.514-3.555,24.957,24.957,0,0,1,0,35.354,2.5,2.5,0,0,1-3.535-.015Z" transform="translate(0.7 0.7)" fill="#232323" stroke="#232323" stroke-miterlimit="10" stroke-width="1.4"/>
</svg>
