<svg xmlns="http://www.w3.org/2000/svg" width="95.584" height="58.325" viewBox="0 0 95.584 58.325">
  <g id="online-food-others" transform="translate(-717.798 -607.8)">
    <g id="sofa-_1_-copy" data-name="sofa-(1)-copy" transform="translate(718 608)">
      <path id="Shape" d="M94.429,14.356a2.891,2.891,0,0,0-2.134-.944H90.312a4.391,4.391,0,0,0-1.093.14V5.864A5.871,5.871,0,0,0,83.354,0H52.06a5.854,5.854,0,0,0-4.47,2.075A5.851,5.851,0,0,0,43.119,0H11.825A5.871,5.871,0,0,0,5.96,5.864v7.687a4.387,4.387,0,0,0-1.093-.14H2.884A2.884,2.884,0,0,0,.013,16.57L2.581,43.534a4.357,4.357,0,0,0,4.355,3.96h.3l-1.263,8.84a1.394,1.394,0,0,0,1.38,1.591h2.981a1.393,1.393,0,0,0,1.281-.845l4.109-9.586h2.061a1.394,1.394,0,0,0,0-2.789H6.936A1.579,1.579,0,0,1,5.357,43.27L2.788,16.305a.093.093,0,0,1,.025-.074.091.091,0,0,1,.071-.031H4.867a1.586,1.586,0,0,1,1.561,1.3L8.941,31.324v1.365a4.379,4.379,0,0,0,4.374,4.374H44.61a4.355,4.355,0,0,0,2.98-1.176,4.359,4.359,0,0,0,2.98,1.176H81.864a4.379,4.379,0,0,0,4.374-4.374V31.324L88.752,17.5a1.585,1.585,0,0,1,1.56-1.3H92.3a.091.091,0,0,1,.071.031.093.093,0,0,1,.025.074L89.823,43.27a1.579,1.579,0,0,1-1.579,1.436h-73.7a1.394,1.394,0,0,0,0,2.789H79.454l4.109,9.586a1.394,1.394,0,0,0,1.282.845h2.98a1.395,1.395,0,0,0,1.381-1.591l-1.263-8.84h.3a4.357,4.357,0,0,0,4.355-3.96L95.166,16.57A2.89,2.89,0,0,0,94.429,14.356ZM9.416,55.137H8.962l1.092-7.643h2.637ZM11.825,2.788H43.119A3.08,3.08,0,0,1,46.2,5.864V22.257a1.588,1.588,0,0,1-1.586,1.586H13.316a4.353,4.353,0,0,0-2.727.957L9.171,17a4.379,4.379,0,0,0-.423-1.229V5.864A3.08,3.08,0,0,1,11.825,2.788ZM44.61,34.274H13.316a1.587,1.587,0,0,1-1.586-1.586v-4.47a1.588,1.588,0,0,1,1.586-1.587H44.61A1.588,1.588,0,0,1,46.2,28.218v4.47A1.588,1.588,0,0,1,44.61,34.274Zm37.254,0H50.57a1.588,1.588,0,0,1-1.586-1.586V28.217a1.588,1.588,0,0,1,1.586-1.586H80.857a1.394,1.394,0,0,0,0-2.788H50.57a1.588,1.588,0,0,1-1.586-1.586V5.865A3.08,3.08,0,0,1,52.06,2.788H83.354A3.08,3.08,0,0,1,86.43,5.865v9.91A4.352,4.352,0,0,0,86.008,17l-1.418,7.8a4.354,4.354,0,0,0-2.727-.958H80.374a1.394,1.394,0,0,0,0,2.788h1.489a1.587,1.587,0,0,1,1.586,1.586v4.471A1.587,1.587,0,0,1,81.864,34.274Zm4.353,20.863h-.454l-3.275-7.643h2.637Z" fill="#fff" stroke="#fff" stroke-width="0.4"/>
      <path id="Path" d="M20.781,13.22a1.394,1.394,0,0,0,0-2.788h-.015a1.394,1.394,0,0,0,.015,2.788Z" fill="#fff" stroke="#fff" stroke-width="0.4"/>
      <path id="Path-2" data-name="Path" d="M74.413,10.431H74.4a1.4,1.4,0,1,0,.015,0Z" fill="#fff" stroke="#fff" stroke-width="0.4"/>
      <path id="Path-3" data-name="Path" d="M34.193,13.22a1.394,1.394,0,0,0,0-2.788h-.014a1.394,1.394,0,0,0,.014,2.788Z" fill="#fff" stroke="#fff" stroke-width="0.4"/>
      <path id="Path-4" data-name="Path" d="M61.016,10.431H61a1.4,1.4,0,1,0,.015,0Z" fill="#fff" stroke="#fff" stroke-width="0.4"/>
    </g>
  </g>
</svg>
