<svg xmlns="http://www.w3.org/2000/svg" width="70.4" height="70.4" viewBox="0 0 70.4 70.4">
  <g id="Page-1" transform="translate(-0.8 -0.8)">
    <g id="online-food-others" transform="translate(-991 -352)">
      <g id="mailbox" transform="translate(992 353)">
        <path id="Shape" d="M58.865,15.179H50.6V11.866H62.9A1.367,1.367,0,0,0,64.078,9.8L61.764,5.933,64.078,2.07A1.367,1.367,0,0,0,62.9,0H49.233a1.367,1.367,0,0,0-1.367,1.367V15.179H20.734A11.11,11.11,0,0,0,10.12,22.937H2.7a2.7,2.7,0,0,0-2.7,2.7V47.244a2.7,2.7,0,0,0,2.7,2.7H9.6v5.812a1.367,1.367,0,0,0,1.367,1.367H34.644V68.633A1.367,1.367,0,0,0,36.012,70h9.768a1.367,1.367,0,0,0,1.367-1.367V57.121H68.633A1.367,1.367,0,0,0,70,55.754V26.315A11.148,11.148,0,0,0,58.865,15.179ZM50.6,2.734h9.892L59,5.231a1.367,1.367,0,0,0,0,1.4l1.495,2.5H50.6ZM20.734,17.914a8.413,8.413,0,0,1,7.691,5.023H13.037A8.383,8.383,0,0,1,20.734,17.914Zm8.4,24.1-5.7-5.573,5.7-5.574ZM29.11,25.672q.024.318.024.643v.729L18.342,37.593,6.148,25.672Zm-26.376.486L13.252,36.441,2.734,46.721Zm12.473,12.2,2.178,2.129a1.366,1.366,0,0,0,1.911,0l2.179-2.129,7.658,7.485v1.37H6.149ZM12.333,49.942h16.8v4.445h-16.8ZM44.412,67.266H37.379V57.121h7.034ZM67.266,54.387h-35.4V49.942H56.816a1.367,1.367,0,1,0,0-2.734H31.869V26.315a11.112,11.112,0,0,0-3.834-8.4H47.866v1.731a5.917,5.917,0,1,0,2.734,0V17.914h8.264a8.41,8.41,0,0,1,8.4,8.4ZM49.233,25.814A1.367,1.367,0,0,0,50.6,24.447V22.529a3.182,3.182,0,1,1-2.734,0v1.918A1.367,1.367,0,0,0,49.233,25.814Z" fill="#fff" stroke="#fff" stroke-width="0.4"/>
      </g>
    </g>
  </g>
</svg>
