<svg xmlns="http://www.w3.org/2000/svg" width="60.401" height="72" viewBox="0 0 60.401 72">
  <path id="Combined_Shape" data-name="Combined Shape" d="M12.348,70a12.425,12.425,0,0,1-8.9-3.244A11.627,11.627,0,0,1,0,57.962c0-1.408.047-2.8.14-4.134A41.415,41.415,0,0,1,.707,49.4a34.87,34.87,0,0,1,1.087-4.447A22.042,22.042,0,0,1,3.623,40.81a15.609,15.609,0,0,1,2.756-3.593,12.136,12.136,0,0,1,3.961-2.488,13.641,13.641,0,0,1,5.054-.916,5.13,5.13,0,0,1,2.74,1.162c.8.524,1.765,1.144,2.857,1.841a16.328,16.328,0,0,0,3.691,1.627,14.345,14.345,0,0,0,9.035,0,16.4,16.4,0,0,0,3.694-1.627c1.066-.681,2.026-1.3,2.855-1.84A5.129,5.129,0,0,1,43,33.814a13.689,13.689,0,0,1,5.055.914,12.15,12.15,0,0,1,3.96,2.488,15.587,15.587,0,0,1,2.756,3.593A21.883,21.883,0,0,1,56.6,44.957,34.916,34.916,0,0,1,57.693,49.4a41.628,41.628,0,0,1,.567,4.424c.094,1.335.141,2.726.141,4.135a11.619,11.619,0,0,1-3.452,8.794A12.428,12.428,0,0,1,46.053,70Zm-.5-31.458a8.057,8.057,0,0,0-2.635,1.638,11.617,11.617,0,0,0-2.025,2.655A17.867,17.867,0,0,0,5.7,46.208a30.681,30.681,0,0,0-.957,3.92,37.548,37.548,0,0,0-.513,3.983c-.086,1.237-.13,2.533-.13,3.85A7.59,7.59,0,0,0,6.28,63.784,8.37,8.37,0,0,0,12.348,65.9H46.053a8.366,8.366,0,0,0,6.067-2.114A7.588,7.588,0,0,0,54.3,57.962c0-1.312-.044-2.607-.131-3.848a37.791,37.791,0,0,0-.513-3.985,30.677,30.677,0,0,0-.958-3.92,17.849,17.849,0,0,0-1.488-3.372,11.563,11.563,0,0,0-2.026-2.655,8.062,8.062,0,0,0-2.634-1.638,9.453,9.453,0,0,0-3.231-.623c-.136.071-.388.215-.815.492-.827.539-1.771,1.147-2.887,1.861a20.358,20.358,0,0,1-4.639,2.074,18.437,18.437,0,0,1-11.559,0,20.313,20.313,0,0,1-4.637-2.071c-1.035-.661-2.007-1.289-2.889-1.863-.418-.273-.673-.419-.814-.492A9.439,9.439,0,0,0,11.849,38.542ZM40.174,58.972a1.843,1.843,0,1,1,0-3.685h6.635a1.843,1.843,0,0,1,0,3.685ZM16.838,28.78A16.314,16.314,0,0,1,11.9,16.859a16.312,16.312,0,0,1,4.939-11.92A16.312,16.312,0,0,1,28.76,0,16.316,16.316,0,0,1,40.68,4.938a16.319,16.319,0,0,1,4.939,11.921A16.32,16.32,0,0,1,40.68,28.78a16.313,16.313,0,0,1-11.92,4.939A16.318,16.318,0,0,1,16.838,28.78Zm2.9-20.941A12.187,12.187,0,0,0,16,16.859,12.186,12.186,0,0,0,19.74,25.88a12.188,12.188,0,0,0,9.02,3.738,12.186,12.186,0,0,0,9.02-3.738,12.193,12.193,0,0,0,3.738-9.021,12.192,12.192,0,0,0-3.738-9.02A12.189,12.189,0,0,0,28.76,4.1,12.186,12.186,0,0,0,19.74,7.839Z" transform="translate(1 1)" fill="#232323" stroke="#232323" stroke-miterlimit="10" stroke-width="2"/>
</svg>
