<svg xmlns="http://www.w3.org/2000/svg" width="77.9" height="70.4" viewBox="0 0 77.9 70.4">
  <g id="Page-1" transform="translate(-0.8 -0.8)">
    <g id="online-food-others" transform="translate(-202 -354)">
      <g id="menu-_3_-copy" data-name="menu-(3)-copy" transform="translate(203 355)">
        <path id="Shape" d="M70,12.5V0H50.821A18.185,18.185,0,0,0,38.75,4.537,18.185,18.185,0,0,0,26.678,0H7.5V12.5H0v50H30.088a8.751,8.751,0,0,0,17.323,0H77.5v-50ZM10,2.5H26.678A15.7,15.7,0,0,1,37.5,6.8V30H40V6.8A15.7,15.7,0,0,1,50.821,2.5H67.5v50H40v-20H37.5v20H10ZM75,60H45v1.25a6.25,6.25,0,0,1-12.5,0V60H2.5V15h5V55H70V15h5Z" fill="#fff" stroke="#fff" stroke-width="0.4"/>
        <path id="Shape-2" data-name="Shape" d="M22.5,9C17.847,9,15,16.5,15,20.586a7.505,7.505,0,0,0,3.151,6.1,1.322,1.322,0,0,1,.6,1.061v17.5a3.75,3.75,0,0,0,7.5,0V27.75a1.326,1.326,0,0,1,.6-1.063A7.5,7.5,0,0,0,30,20.586C30,16.5,27.153,9,22.5,9Zm2.9,15.651a3.842,3.842,0,0,0-1.649,3.1v17.5a1.25,1.25,0,0,1-2.5,0V27.75a3.842,3.842,0,0,0-1.649-3.1,5,5,0,0,1-2.1-4.065c0-3.071,2.264-9.086,5-9.086s5,6.015,5,9.086A5,5,0,0,1,25.4,24.651Z" fill="#fff"/>
        <path id="Combined-Shape" d="M56.25,9h2.5V21.751h-2.5Zm-5,0h2.5V21.751h-2.5Zm0,23a10.2,10.2,0,0,0-2.226-6.346A12.7,12.7,0,0,1,46.25,17.75V9h2.5v8.75A10.191,10.191,0,0,0,50.976,24.1,12.708,12.708,0,0,1,53.75,32V45.25a1.25,1.25,0,0,0,2.5,0V32A12.708,12.708,0,0,1,59.024,24.1,10.191,10.191,0,0,0,61.25,17.75V9h2.5v8.75a12.7,12.7,0,0,1-2.774,7.908A10.2,10.2,0,0,0,58.75,32V45.25a3.75,3.75,0,0,1-7.5,0Z" fill="#fff"/>
      </g>
    </g>
  </g>
</svg>
