<svg xmlns="http://www.w3.org/2000/svg" width="70" height="70" viewBox="0 0 70 70">
  <path id="Combined_Shape" data-name="Combined Shape" d="M8.021,70A8.03,8.03,0,0,1,0,61.979V8.021A8.03,8.03,0,0,1,8.021,0H61.979A8.03,8.03,0,0,1,70,8.021V61.979A8.03,8.03,0,0,1,61.979,70ZM4.375,8.021V61.979a3.65,3.65,0,0,0,3.646,3.646H61.979a3.65,3.65,0,0,0,3.646-3.646V8.021a3.65,3.65,0,0,0-3.646-3.646H8.021A3.65,3.65,0,0,0,4.375,8.021ZM28.437,53.959a2.187,2.187,0,0,1,0-4.375h4.375V30.625H29.9a2.187,2.187,0,1,1,0-4.375H35a2.188,2.188,0,0,1,2.187,2.187V49.584h4.376a2.187,2.187,0,0,1,0,4.375ZM32.083,17.5A2.916,2.916,0,1,1,35,20.417,2.917,2.917,0,0,1,32.083,17.5Z" fill="#232323"/>
</svg>
