<svg xmlns="http://www.w3.org/2000/svg" xmlns:xlink="http://www.w3.org/1999/xlink" width="94.667" height="88" viewBox="0 0 94.667 88">
  <defs>
    <filter id="Combined_Shape" x="0" y="0" width="94.667" height="88" filterUnits="userSpaceOnUse">
      <feOffset dy="6" input="SourceAlpha"/>
      <feGaussianBlur stdDeviation="3" result="blur"/>
      <feFlood flood-opacity="0.369"/>
      <feComposite operator="in" in2="blur"/>
      <feComposite in="SourceGraphic"/>
    </filter>
  </defs>
  <g transform="matrix(1, 0, 0, 1, 0, 0)" filter="url(#Combined_Shape)">
    <g id="Combined_Shape-2" data-name="Combined Shape" transform="translate(9 3)" fill="none" stroke-miterlimit="10">
      <path d="M14.974,70a3,3,0,0,1-3-3c0-.034,0-.068,0-.1,0-.017,0-.033,0-.049s0-.032,0-.049c0-.033,0-.067,0-.1V32.995H5.99a2.995,2.995,0,0,1,0-5.989h5.99V17.969H8.985A8.984,8.984,0,1,1,8.985,0h58.7a8.984,8.984,0,0,1,0,17.969H17.969v9.037H57.2a2.995,2.995,0,1,1,0,5.989H17.969V64.011H54.206a2.995,2.995,0,0,1,0,5.989ZM5.99,8.985a3,3,0,0,0,3,2.994h58.7a2.995,2.995,0,0,0,0-5.99H8.985A3,3,0,0,0,5.99,8.985ZM62.441,59.759A5.241,5.241,0,1,1,67.683,65,5.247,5.247,0,0,1,62.441,59.759Zm-26.355-2.4V46.028L31.514,50.6a2.644,2.644,0,1,1-3.74-3.739l9.087-9.087a2.637,2.637,0,0,1,3.736,0l9.091,9.087a2.645,2.645,0,0,1-3.74,3.739l-4.575-4.575V57.357a2.644,2.644,0,0,1-5.288,0Zm28.6-9.44a2.995,2.995,0,1,1,3,2.994A3,3,0,0,1,64.688,47.917Zm0-10.482a2.995,2.995,0,1,1,3,3A3,3,0,0,1,64.688,37.435Zm0-10.481a2.995,2.995,0,1,1,3,2.994A3,3,0,0,1,64.688,26.953Z" stroke="none"/>
      <path d="M 67.68270874023438 59.99979400634766 C 67.81092834472656 59.99979400634766 67.92340087890625 59.8873176574707 67.92340087890625 59.75909805297852 C 67.92340087890625 59.63088226318359 67.81092834472656 59.51840209960938 67.68270874023438 59.51840209960938 C 67.55399322509766 59.51840209960938 67.44110107421875 59.63088226318359 67.44110107421875 59.75909805297852 C 67.44110107421875 59.8873176574707 67.55399322509766 59.99979400634766 67.68270874023438 59.99979400634766 M 54.20610046386719 70.00020599365234 L 14.97420883178711 70.00020599365234 C 13.32270812988281 70.00020599365234 11.97899150848389 68.65650939941406 11.97899150848389 67.00501251220703 C 11.97899150848389 66.97079467773438 11.98170852661133 66.93751525878906 11.98351287841797 66.90509796142578 C 11.98529529571533 66.88801574707031 11.98620891571045 66.87179565429688 11.98709964752197 66.85559844970703 C 11.98620891571045 66.83940124511719 11.98529529571533 66.82321166992188 11.98351287841797 66.80699157714844 C 11.98170852661133 66.77370452880859 11.97899150848389 66.73950958251953 11.97899150848389 66.70529174804688 L 11.97899150848389 32.99490356445313 L 5.989512920379639 32.99490356445313 C 4.3380126953125 32.99490356445313 2.995208501815796 31.65120697021484 2.995208501815796 29.99970817565918 C 2.995208501815796 28.34820747375488 4.3380126953125 27.00540351867676 5.989512920379639 27.00540351867676 L 11.97899150848389 27.00540351867676 L 11.97899150848389 23.65920829772949 L 11.97899150848389 17.96849060058594 L 8.984708786010742 17.96849060058594 C 4.030208587646484 17.96849060058594 -8.91644049261231e-06 13.93829441070557 -8.91644049261231e-06 8.984707832336426 C -8.91644049261231e-06 4.030208110809326 4.030208587646484 1.222560695168795e-05 8.984708786010742 1.222560695168795e-05 L 67.68270874023438 1.222560695168795e-05 C 72.63629913330078 1.222560695168795e-05 76.66651153564453 4.030208110809326 76.66651153564453 8.984707832336426 C 76.66651153564453 13.93829441070557 72.63629913330078 17.96849060058594 67.68270874023438 17.96849060058594 L 17.96849060058594 17.96849060058594 L 17.96849060058594 23.65920829772949 L 17.96849060058594 27.00540351867676 L 57.20040512084961 27.00540351867676 C 58.85190582275391 27.00540351867676 60.19559860229492 28.34820747375488 60.19559860229492 29.99970817565918 C 60.19559860229492 31.65120697021484 58.85190582275391 32.99490356445313 57.20040512084961 32.99490356445313 L 42.82559967041016 32.99490356445313 L 36.83610153198242 32.99490356445313 L 17.96849060058594 32.99490356445313 L 17.96849060058594 64.01071166992188 L 54.20610046386719 64.01071166992188 C 55.85760116577148 64.01071166992188 57.20040512084961 65.353515625 57.20040512084961 67.00501251220703 C 57.20040512084961 68.65650939941406 55.85760116577148 70.00020599365234 54.20610046386719 70.00020599365234 Z M 8.984708786010742 5.98951244354248 C 7.333208560943604 5.98951244354248 5.989512920379639 7.333208084106445 5.989512920379639 8.984707832336426 C 5.989512920379639 10.63620758056641 7.333208560943604 11.97901248931885 8.984708786010742 11.97901248931885 L 67.68270874023438 11.97901248931885 C 69.33420562744141 11.97901248931885 70.67700958251953 10.63620758056641 70.67700958251953 8.984707832336426 C 70.67700958251953 7.333208084106445 69.33420562744141 5.98951244354248 67.68270874023438 5.98951244354248 L 8.984708786010742 5.98951244354248 Z M 67.68270874023438 64.99979400634766 C 64.79279327392578 64.99979400634766 62.44110107421875 62.64901351928711 62.44110107421875 59.75909805297852 C 62.44110107421875 56.86920928955078 64.79279327392578 54.51840209960938 67.68270874023438 54.51840209960938 C 70.57260131835938 54.51840209960938 72.92340087890625 56.86920928955078 72.92340087890625 59.75909805297852 C 72.92340087890625 62.64901351928711 70.57260131835938 64.99979400634766 67.68270874023438 64.99979400634766 Z M 38.72970962524414 60.00029373168945 C 37.27079391479492 60.00029373168945 36.08640289306641 58.81590270996094 36.08640289306641 57.35701370239258 L 36.08640289306641 46.02779388427734 L 31.514404296875 50.60251235961914 C 30.99825286865234 51.11911010742188 30.32145309448242 51.37740707397461 29.6446533203125 51.37740707397461 C 28.96785545349121 51.37740707397461 28.29105567932129 51.11911010742188 27.77490425109863 50.60251235961914 C 26.74170875549316 49.57020950317383 26.74170875549316 47.89620971679688 27.77490425109863 46.86301040649414 L 36.86220932006836 37.77570724487305 C 37.3760986328125 37.25729370117188 38.05290222167969 36.99990463256836 38.72970962524414 36.99990463256836 C 39.40649032592773 36.99990463256836 40.08329391479492 37.25729370117188 40.59809875488281 37.77570724487305 L 49.68901443481445 46.86301040649414 C 50.72129440307617 47.89620971679688 50.72129440307617 49.57020950317383 49.68901443481445 50.60251235961914 C 49.17240524291992 51.11911010742188 48.49560165405273 51.37740707397461 47.81879806518555 51.37740707397461 C 47.14199829101563 51.37740707397461 46.4651985168457 51.11911010742188 45.94860076904297 50.60251235961914 L 41.37390518188477 46.02779388427734 L 41.37390518188477 57.35701370239258 C 41.37390518188477 58.81590270996094 40.18951416015625 60.00029373168945 38.72970962524414 60.00029373168945 Z M 67.68270874023438 50.91120910644531 C 66.03121185302734 50.91120910644531 64.68749237060547 49.56840515136719 64.68749237060547 47.91690444946289 C 64.68749237060547 46.26540374755859 66.03121185302734 44.92170715332031 67.68270874023438 44.92170715332031 C 69.33420562744141 44.92170715332031 70.67700958251953 46.26540374755859 70.67700958251953 47.91690444946289 C 70.67700958251953 49.56840515136719 69.33420562744141 50.91120910644531 67.68270874023438 50.91120910644531 Z M 67.68270874023438 40.42979431152344 C 66.03121185302734 40.42979431152344 64.68749237060547 39.08609771728516 64.68749237060547 37.43460083007813 C 64.68749237060547 35.78310012817383 66.03121185302734 34.4402961730957 67.68270874023438 34.4402961730957 C 69.33420562744141 34.4402961730957 70.67700958251953 35.78310012817383 70.67700958251953 37.43460083007813 C 70.67700958251953 39.08609771728516 69.33420562744141 40.42979431152344 67.68270874023438 40.42979431152344 Z M 67.68270874023438 29.94749069213867 C 66.03121185302734 29.94749069213867 64.68749237060547 28.60470771789551 64.68749237060547 26.95320701599121 C 64.68749237060547 25.30170822143555 66.03121185302734 23.9579906463623 67.68270874023438 23.9579906463623 C 69.33420562744141 23.9579906463623 70.67700958251953 25.30170822143555 70.67700958251953 26.95320701599121 C 70.67700958251953 28.60470771789551 69.33420562744141 29.94749069213867 67.68270874023438 29.94749069213867 Z" stroke="none" fill="#fff"/>
    </g>
  </g>
</svg>
